<?xml version="1.0" encoding="UTF-8"?>
<svg width="40px" height="40px" viewBox="0 0 40 40" version="1.1" xmlns="http://www.w3.org/2000/svg" xmlns:xlink="http://www.w3.org/1999/xlink">
    <!-- Generator: Sketch 55.2 (78181) - https://sketchapp.com -->
    <title>building</title>
    <desc>Created with Sketch.</desc>
    <g id="design" stroke="none" stroke-width="1" fill="none" fill-rule="evenodd">
        <g id="FreiVernetzt-design" transform="translate(-1175.000000, -1961.000000)" fill="#C70B4F" fill-rule="nonzero">
            <g id="price" transform="translate(0.000000, 1655.000000)">
                <g id="4" transform="translate(1048.000000, 264.000000)">
                    <g id="building" transform="translate(127.000000, 42.000000)">
                        <path d="M31.3333333,0 L20.6666667,0 L20.6666667,4 L19.3333333,4 L19.3333333,0 L8.66666667,0 L8.66666667,1.33333333 L0,1.33333333 L0,2.66666667 L3.33333333,2.66666667 L3.33333333,4 L0,4 L0,8 L2.66666667,8 L2.66666667,14.6666667 L0,14.6666667 L0,18.6666667 L2.66666667,18.6666667 L2.66666667,25.3333333 L0,25.3333333 L0,29.3333333 L2.66666667,29.3333333 L2.66666667,40 L37.3333333,40 L37.3333333,29.3333333 L40,29.3333333 L40,25.3333333 L37.3333333,25.3333333 L37.3333333,18.6666667 L40,18.6666667 L40,14.6666667 L37.3333333,14.6666667 L37.3333333,8 L40,8 L40,4 L36.6666667,4 L36.6666667,2.66666667 L40,2.66666667 L40,1.33333333 L31.3333333,1.33333333 L31.3333333,0 Z M22,1.33333333 L30,1.33333333 L30,4 L22,4 L22,1.33333333 Z M10,1.33333333 L18,1.33333333 L18,4 L10,4 L10,1.33333333 Z M7.33333333,2.66666667 L8.66666667,2.66666667 L8.66666667,4 L7.33333333,4 L7.33333333,2.66666667 Z M4.66666667,2.66666667 L6,2.66666667 L6,4 L4.66666667,4 L4.66666667,2.66666667 Z M5.33333333,38.6666667 L4,38.6666667 L4,37.3333333 L5.33333333,37.3333333 L5.33333333,38.6666667 Z M8,38.6666667 L6.66666667,38.6666667 L6.66666667,37.3333333 L8,37.3333333 L8,38.6666667 Z M8,36 L6.66666667,36 L6.66666667,32 L8,32 L8,36 Z M10.6666667,38.6666667 L9.33333333,38.6666667 L9.33333333,37.3333333 L10.6666667,37.3333333 L10.6666667,38.6666667 Z M10.6666667,36 L9.33333333,36 L9.33333333,32 L10.6666667,32 L10.6666667,36 Z M19.3333333,34.6666667 L18,34.6666667 L18,36 L19.3333333,36 L19.3333333,38.6666667 L16,38.6666667 L16,32 L19.3333333,32 L19.3333333,34.6666667 Z M24,38.6666667 L20.6666667,38.6666667 L20.6666667,36 L22,36 L22,34.6666667 L20.6666667,34.6666667 L20.6666667,32 L24,32 L24,38.6666667 Z M30.6666667,38.6666667 L29.3333333,38.6666667 L29.3333333,37.3333333 L30.6666667,37.3333333 L30.6666667,38.6666667 Z M30.6666667,36 L29.3333333,36 L29.3333333,32 L30.6666667,32 L30.6666667,36 Z M33.3333333,38.6666667 L32,38.6666667 L32,37.3333333 L33.3333333,37.3333333 L33.3333333,38.6666667 Z M33.3333333,36 L32,36 L32,32 L33.3333333,32 L33.3333333,36 Z M36,38.6666667 L34.6666667,38.6666667 L34.6666667,37.3333333 L36,37.3333333 L36,38.6666667 Z M36,36 L34.6666667,36 L34.6666667,30.6666667 L28,30.6666667 L28,36 L26.6666667,36 L26.6666667,37.3333333 L28,37.3333333 L28,38.6666667 L25.3333333,38.6666667 L25.3333333,32 L26.6666667,32 L26.6666667,30.6666667 L13.3333333,30.6666667 L13.3333333,32 L14.6666667,32 L14.6666667,38.6666667 L12,38.6666667 L12,37.3333333 L13.3333333,37.3333333 L13.3333333,36 L12,36 L12,30.6666667 L5.33333333,30.6666667 L5.33333333,36 L4,36 L4,29.3333333 L36,29.3333333 L36,36 Z M38.6666667,26.6666667 L38.6666667,28 L1.33333333,28 L1.33333333,26.6666667 L38.6666667,26.6666667 Z M26.6666667,22.6666667 L26.6666667,24 L28,24 L28,25.3333333 L25.3333333,25.3333333 L25.3333333,20 L21.3333333,20 L21.3333333,25.3333333 L20,25.3333333 L20,20 L16,20 L16,25.3333333 L14.6666667,25.3333333 L14.6666667,20 L10.6666667,20 L10.6666667,25.3333333 L9.33333333,25.3333333 L9.33333333,20 L5.33333333,20 L5.33333333,25.3333333 L4,25.3333333 L4,18.6666667 L36,18.6666667 L36,22.6666667 L26.6666667,22.6666667 Z M36,24 L36,25.3333333 L34.6666667,25.3333333 L34.6666667,24 L36,24 Z M33.3333333,24 L33.3333333,25.3333333 L32,25.3333333 L32,24 L33.3333333,24 Z M30.6666667,24 L30.6666667,25.3333333 L29.3333333,25.3333333 L29.3333333,24 L30.6666667,24 Z M24,21.3333333 L24,25.3333333 L22.6666667,25.3333333 L22.6666667,21.3333333 L24,21.3333333 Z M18.6666667,21.3333333 L18.6666667,25.3333333 L17.3333333,25.3333333 L17.3333333,21.3333333 L18.6666667,21.3333333 Z M13.3333333,21.3333333 L13.3333333,25.3333333 L12,25.3333333 L12,21.3333333 L13.3333333,21.3333333 Z M8,21.3333333 L8,25.3333333 L6.66666667,25.3333333 L6.66666667,21.3333333 L8,21.3333333 Z M38.6666667,16 L38.6666667,17.3333333 L1.33333333,17.3333333 L1.33333333,16 L38.6666667,16 Z M30.6666667,9.33333333 L30.6666667,14.6666667 L29.3333333,14.6666667 L29.3333333,9.33333333 L25.3333333,9.33333333 L25.3333333,14.6666667 L24,14.6666667 L24,9.33333333 L20,9.33333333 L20,14.6666667 L18.6666667,14.6666667 L18.6666667,9.33333333 L14.6666667,9.33333333 L14.6666667,14.6666667 L12,14.6666667 L12,13.3333333 L13.3333333,13.3333333 L13.3333333,12 L4,12 L4,8 L36,8 L36,14.6666667 L34.6666667,14.6666667 L34.6666667,9.33333333 L30.6666667,9.33333333 Z M33.3333333,10.6666667 L33.3333333,14.6666667 L32,14.6666667 L32,10.6666667 L33.3333333,10.6666667 Z M28,10.6666667 L28,14.6666667 L26.6666667,14.6666667 L26.6666667,10.6666667 L28,10.6666667 Z M22.6666667,10.6666667 L22.6666667,14.6666667 L21.3333333,14.6666667 L21.3333333,10.6666667 L22.6666667,10.6666667 Z M17.3333333,10.6666667 L17.3333333,14.6666667 L16,14.6666667 L16,10.6666667 L17.3333333,10.6666667 Z M10.6666667,13.3333333 L10.6666667,14.6666667 L9.33333333,14.6666667 L9.33333333,13.3333333 L10.6666667,13.3333333 Z M8,13.3333333 L8,14.6666667 L6.66666667,14.6666667 L6.66666667,13.3333333 L8,13.3333333 Z M5.33333333,13.3333333 L5.33333333,14.6666667 L4,14.6666667 L4,13.3333333 L5.33333333,13.3333333 Z M34,2.66666667 L35.3333333,2.66666667 L35.3333333,4 L34,4 L34,2.66666667 Z M38.6666667,5.33333333 L38.6666667,6.66666667 L1.33333333,6.66666667 L1.33333333,5.33333333 L38.6666667,5.33333333 Z M32.6666667,2.66666667 L32.6666667,4 L31.3333333,4 L31.3333333,2.66666667 L32.6666667,2.66666667 Z" id="Shape"></path>
                    </g>
                </g>
            </g>
        </g>
    </g>
</svg>